<svg width="352" height="76" viewBox="0 0 352 76" fill="none" xmlns="http://www.w3.org/2000/svg">
<g clip-path="url(#clip0_4473_18466)">
<mask id="mask0_4473_18466" style="mask-type:luminance" maskUnits="userSpaceOnUse" x="0" y="0" width="352" height="76">
<path d="M351.56 0H0V76H351.56V0Z" fill="white"/>
</mask>
<g mask="url(#mask0_4473_18466)">
<path fill-rule="evenodd" clip-rule="evenodd" d="M83.8194 31.8331H65.7913L62.6122 53.8711H36.0959L32.9167 75.9095H0.00671387L4.59872 44.0766H4.59972L10.9535 0H88.3964L83.8194 31.8331ZM55.6767 31.8331H16.4771L14.7144 44.0765H53.9139L55.6767 31.8331ZM75.1211 22.0382H17.8941L19.6567 9.79478H76.8788L75.1211 22.0382ZM24.2135 66.1149H11.5343L13.2819 53.8713H25.9813L24.2135 66.1149Z" fill="#EEEEEE"/>
<path d="M106.368 66.5201H117.311V42.7123H136.8V33.365H117.311V19.7833H138.238V9.79688H106.368V66.5201Z" fill="#EEEEEE"/>
<path d="M142.739 66.5203H153.442V48.3849C153.442 40.0762 158.474 34.4837 166.541 34.4837C167.5 34.4837 168.299 34.5637 169.257 34.7234V24.4973C168.299 24.2576 167.42 24.1777 166.461 24.1777C158.953 24.1777 154.88 29.3706 153.442 35.762V24.9766H142.739V66.5203Z" fill="#EEEEEE"/>
<path d="M189.749 67.3194C197.177 67.3194 201.97 63.2448 203.008 60.928H203.248V66.5203H213.952V24.9766H203.248V30.569H203.008C201.97 28.2522 197.177 24.1777 189.749 24.1777C180.085 24.1777 169.781 31.368 169.781 45.7486C169.781 60.1291 180.085 67.3194 189.749 67.3194ZM180.324 45.7486C180.324 37.999 185.916 33.7647 191.906 33.7647C197.897 33.7647 203.487 37.9191 203.487 45.7486C203.487 53.5778 197.897 57.7323 191.906 57.7323C185.916 57.7323 180.324 53.498 180.324 45.7486Z" fill="#EEEEEE"/>
<path d="M219.693 66.5203H230.396V43.831C230.396 37.7592 233.751 33.7647 239.262 33.7647C244.853 33.7647 248.128 37.7592 248.128 43.831V66.5203H258.832V42.0734C258.832 29.4505 251.644 24.1777 243.096 24.1777C236.866 24.1777 232.713 26.9738 230.396 30.649V24.9766H219.693V66.5203Z" fill="#EEEEEE"/>
<path d="M284.455 67.3194C291.803 67.3194 298.354 63.8041 302.347 57.0931L294.518 52.0599C292.362 55.3355 288.848 57.6524 284.536 57.6524C278.544 57.6524 273.113 53.1784 273.113 45.7486C273.113 38.3186 278.544 33.8447 284.536 33.8447C288.848 33.8447 292.362 36.1615 294.518 39.437L302.347 34.4038C298.354 27.613 291.803 24.1777 284.455 24.1777C273.512 24.1777 262.57 31.6876 262.57 45.7486C262.57 59.8095 273.512 67.3194 284.455 67.3194Z" fill="#EEEEEE"/>
<path d="M306.085 66.5201H316.788V24.9764H306.085V66.5201ZM306.085 19.2241H316.788V9.79688H306.085V19.2241Z" fill="#EEEEEE"/>
<path d="M335.745 67.3194C344.452 67.3194 351.56 62.8453 351.56 54.5366C351.56 47.1866 345.969 44.1506 340.858 42.3131L336.224 40.5555C332.949 39.437 331.911 37.9191 331.911 36.1615C331.911 34.1641 333.589 32.5663 336.384 32.5663C338.621 32.5663 340.777 33.6049 341.896 36.9604L350.283 34.8033C348.925 28.4119 343.412 24.1777 335.905 24.1777C328.077 24.1777 321.528 28.6516 321.528 36.0816C321.528 41.1148 324.403 45.5088 331.272 47.9855L336.384 49.9028C339.659 51.1013 340.936 52.5394 340.936 54.5366C340.936 57.4926 338.301 58.8508 335.586 58.8508C331.511 58.8508 329.515 56.0545 328.717 53.3383L320.169 55.6551C321.448 63.3248 327.518 67.3194 335.745 67.3194Z" fill="#EEEEEE"/>
</g>
</g>
<defs>
<clipPath id="clip0_4473_18466">
<rect width="351.56" height="76" fill="white"/>
</clipPath>
</defs>
</svg>
