<svg width="650" height="100" viewBox="0 0 650 100" fill="none" xmlns="http://www.w3.org/2000/svg">
<g clip-path="url(#clip0_4474_19503)">
<mask id="mask0_4474_19503" style="mask-type:luminance" maskUnits="userSpaceOnUse" x="0" y="15" width="325" height="70">
<path d="M324.276 15H0.470703V85H324.276V15Z" fill="white"/>
</mask>
<g mask="url(#mask0_4474_19503)">
<path fill-rule="evenodd" clip-rule="evenodd" d="M77.6734 44.3198H61.0686L58.1405 64.618H33.7176L30.7894 84.9166H0.477539L4.70702 55.5968H4.70794L10.5601 14.9999H81.8891L77.6734 44.3198ZM51.7525 44.3198H15.6476L14.024 55.5966H50.1289L51.7525 44.3198ZM69.6619 35.2982H16.9528L18.5762 24.0214H71.2808L69.6619 35.2982ZM22.7733 75.8951H11.095L12.7047 64.6182H24.4015L22.7733 75.8951Z" fill="#EEEEEE"/>
<path d="M98.4429 76.2687H108.522V54.3405H126.472V45.7311H108.522V33.2217H127.797V24.0237H98.4429V76.2687Z" fill="#EEEEEE"/>
<path d="M131.943 76.2694H141.802V59.5658C141.802 51.913 146.436 46.762 153.867 46.762C154.75 46.762 155.486 46.8357 156.368 46.9828V37.564C155.486 37.3432 154.676 37.2697 153.793 37.2697C146.878 37.2697 143.126 42.0526 141.802 47.9394V38.0055H131.943V76.2694Z" fill="#EEEEEE"/>
<path d="M175.24 77.0054C182.082 77.0054 186.496 73.2525 187.452 71.1186H187.673V76.2694H197.532V38.0055H187.673V43.1563H187.452C186.496 41.0224 182.082 37.2697 175.24 37.2697C166.338 37.2697 156.848 43.8923 156.848 57.1375C156.848 70.3828 166.338 77.0054 175.24 77.0054ZM166.559 57.1375C166.559 49.9997 171.709 46.0997 177.226 46.0997C182.745 46.0997 187.893 49.9262 187.893 57.1375C187.893 64.3487 182.745 68.1752 177.226 68.1752C171.709 68.1752 166.559 64.2751 166.559 57.1375Z" fill="#EEEEEE"/>
<path d="M202.821 76.2694H212.679V55.3714C212.679 49.7789 215.769 46.0997 220.845 46.0997C225.995 46.0997 229.011 49.7789 229.011 55.3714V76.2694H238.871V53.7525C238.871 42.1261 232.249 37.2697 224.376 37.2697C218.639 37.2697 214.813 39.845 212.679 43.23V38.0055H202.821V76.2694Z" fill="#EEEEEE"/>
<path d="M262.47 77.0054C269.238 77.0054 275.271 73.7676 278.949 67.5865L271.739 62.9506C269.753 65.9676 266.516 68.1016 262.544 68.1016C257.025 68.1016 252.023 63.9808 252.023 57.1375C252.023 50.2941 257.025 46.1734 262.544 46.1734C266.516 46.1734 269.753 48.3073 271.739 51.3243L278.949 46.6884C275.271 40.4337 269.238 37.2697 262.47 37.2697C252.39 37.2697 242.312 44.1866 242.312 57.1375C242.312 70.0884 252.39 77.0054 262.47 77.0054Z" fill="#EEEEEE"/>
<path d="M282.395 76.269H292.252V38.005H282.395V76.269ZM282.395 32.7069H292.252V24.0239H282.395V32.7069Z" fill="#EEEEEE"/>
<path d="M309.711 77.0054C317.73 77.0054 324.277 72.8846 324.277 65.2318C324.277 58.462 319.127 55.6657 314.42 53.9733L310.152 52.3544C307.136 51.3243 306.179 49.9262 306.179 48.3073C306.179 46.4676 307.725 44.996 310.3 44.996C312.36 44.996 314.346 45.9526 315.376 49.0431L323.101 47.0563C321.85 41.1695 316.773 37.2697 309.859 37.2697C302.648 37.2697 296.616 41.3903 296.616 48.2338C296.616 52.8696 299.264 56.9167 305.59 59.1979L310.3 60.9638C313.316 62.0677 314.492 63.3922 314.492 65.2318C314.492 67.9544 312.065 69.2053 309.564 69.2053C305.811 69.2053 303.973 66.6298 303.237 64.128L295.364 66.2619C296.542 73.3262 302.133 77.0054 309.711 77.0054Z" fill="#EEEEEE"/>
</g>
</g>
<rect x="399.283" width="5" height="100" rx="2.5" fill="#2A2A2A"/>
<path d="M501.357 75H484.876V24.0909H501.879C506.867 24.0909 511.151 25.1101 514.731 27.1484C518.31 29.1702 521.053 32.0786 522.959 35.8736C524.881 39.652 525.842 44.1844 525.842 49.4709C525.842 54.7739 524.873 59.3312 522.934 63.1428C521.011 66.9543 518.227 69.8875 514.581 71.9425C510.936 73.9808 506.528 75 501.357 75ZM492.557 68.2884H500.934C504.812 68.2884 508.036 67.5592 510.604 66.1009C513.173 64.6259 515.095 62.4964 516.371 59.7124C517.647 56.9117 518.285 53.4979 518.285 49.4709C518.285 45.477 517.647 42.0881 516.371 39.304C515.112 36.5199 513.231 34.407 510.729 32.9652C508.226 31.5234 505.119 30.8026 501.407 30.8026H492.557V68.2884ZM550.88 75.7706C547.301 75.7706 544.177 74.9503 541.509 73.3097C538.841 71.669 536.769 69.3738 535.294 66.424C533.819 63.4742 533.082 60.0272 533.082 56.0831C533.082 52.1224 533.819 48.6589 535.294 45.6925C536.769 42.7261 538.841 40.4226 541.509 38.782C544.177 37.1413 547.301 36.321 550.88 36.321C554.46 36.321 557.584 37.1413 560.252 38.782C562.92 40.4226 564.991 42.7261 566.466 45.6925C567.941 48.6589 568.679 52.1224 568.679 56.0831C568.679 60.0272 567.941 63.4742 566.466 66.424C564.991 69.3738 562.92 71.669 560.252 73.3097C557.584 74.9503 554.46 75.7706 550.88 75.7706ZM550.905 69.5312C553.225 69.5312 555.148 68.9181 556.672 67.6918C558.197 66.4654 559.324 64.8331 560.053 62.7947C560.799 60.7564 561.172 58.5109 561.172 56.0582C561.172 53.6222 560.799 51.3849 560.053 49.3466C559.324 47.2917 558.197 45.6428 556.672 44.3999C555.148 43.157 553.225 42.5355 550.905 42.5355C548.569 42.5355 546.63 43.157 545.088 44.3999C543.564 45.6428 542.429 47.2917 541.683 49.3466C540.954 51.3849 540.589 53.6222 540.589 56.0582C540.589 58.5109 540.954 60.7564 541.683 62.7947C542.429 64.8331 543.564 66.4654 545.088 67.6918C546.63 68.9181 548.569 69.5312 550.905 69.5312ZM593.058 75.7706C589.363 75.7706 586.181 74.9337 583.513 73.2599C580.861 71.5696 578.823 69.2412 577.398 66.2749C575.972 63.3085 575.26 59.9112 575.26 56.0831C575.26 52.2053 575.989 48.7831 577.447 45.8168C578.906 42.8338 580.961 40.5054 583.612 38.8317C586.264 37.1579 589.387 36.321 592.983 36.321C595.884 36.321 598.469 36.8596 600.739 37.9368C603.01 38.9974 604.841 40.4889 606.233 42.4112C607.641 44.3336 608.478 46.5791 608.743 49.1477H601.51C601.112 47.358 600.201 45.8168 598.775 44.5241C597.367 43.2315 595.478 42.5852 593.108 42.5852C591.036 42.5852 589.222 43.1321 587.664 44.2259C586.123 45.303 584.921 46.8442 584.059 48.8494C583.198 50.8381 582.767 53.1913 582.767 55.9091C582.767 58.6932 583.189 61.0961 584.035 63.1179C584.88 65.1397 586.073 66.7057 587.614 67.8161C589.172 68.9264 591.003 69.4815 593.108 69.4815C594.516 69.4815 595.792 69.2247 596.936 68.7109C598.096 68.1806 599.065 67.4266 599.844 66.4489C600.64 65.4711 601.195 64.2945 601.51 62.919H608.743C608.478 65.3883 607.675 67.5923 606.332 69.5312C604.99 71.4702 603.192 72.9948 600.938 74.1051C598.701 75.2154 596.074 75.7706 593.058 75.7706ZM645.303 46.1399L638.567 47.3331C638.285 46.4714 637.838 45.651 637.224 44.8722C636.628 44.0933 635.816 43.4553 634.788 42.9581C633.761 42.4609 632.477 42.2124 630.935 42.2124C628.831 42.2124 627.074 42.6847 625.665 43.6293C624.257 44.5573 623.553 45.7588 623.553 47.2337C623.553 48.5097 624.025 49.5372 624.969 50.3161C625.914 51.0949 627.439 51.733 629.543 52.2301L635.609 53.6222C639.122 54.4342 641.74 55.6854 643.464 57.3757C645.187 59.0661 646.049 61.2618 646.049 63.9631C646.049 66.25 645.386 68.2884 644.06 70.0781C642.751 71.8513 640.92 73.2434 638.567 74.2543C636.23 75.2652 633.521 75.7706 630.438 75.7706C626.163 75.7706 622.674 74.8591 619.973 73.0362C617.272 71.1967 615.615 68.5866 615.001 65.206L622.185 64.1122C622.633 65.9848 623.553 67.4018 624.945 68.3629C626.337 69.3075 628.151 69.7798 630.388 69.7798C632.825 69.7798 634.772 69.2744 636.23 68.2635C637.688 67.236 638.418 65.9848 638.418 64.5099C638.418 63.3168 637.97 62.3142 637.075 61.5021C636.197 60.6901 634.846 60.0769 633.023 59.6626L626.56 58.2457C622.997 57.4337 620.362 56.1411 618.656 54.3679C616.965 52.5947 616.12 50.3492 616.12 47.6314C616.12 45.3776 616.75 43.4055 618.009 41.7152C619.269 40.0249 621.009 38.7074 623.229 37.7628C625.45 36.8016 627.994 36.321 630.861 36.321C634.987 36.321 638.235 37.2159 640.605 39.0057C642.975 40.7789 644.541 43.157 645.303 46.1399Z" fill="#B4B4B4"/>
<defs>
<clipPath id="clip0_4474_19503">
<rect width="323.806" height="70" fill="white" transform="translate(0.477539 15)"/>
</clipPath>
</defs>
</svg>
