<svg width="130" height="20" viewBox="0 0 130 20" fill="none" xmlns="http://www.w3.org/2000/svg">
<g clip-path="url(#clip0_4474_19503)">
<mask id="mask0_4474_19503" style="mask-type:luminance" maskUnits="userSpaceOnUse" x="-1" y="3" width="66" height="14">
<path d="M64.7596 3H-0.00146484V17H64.7596V3Z" fill="white"/>
</mask>
<g mask="url(#mask0_4474_19503)">
<path fill-rule="evenodd" clip-rule="evenodd" d="M15.4392 8.86399H12.1182L11.5326 12.9236H6.648L6.06237 16.9833H0L0.845896 11.1194H0.846079L2.01652 3H16.2823L15.4392 8.86399ZM10.255 8.86399H3.03402L2.7093 11.1193H9.93028L10.255 8.86399ZM13.8369 7.05967H3.29505L3.61974 4.8043H14.1606L13.8369 7.05967ZM4.45915 15.1791H2.1235L2.44543 12.9237H4.78479L4.45915 15.1791Z" fill="#EEEEEE"/>
<path d="M19.5933 15.2538H21.6091V10.8681H25.1992V9.14624H21.6091V6.64435H25.464V4.80475H19.5933V15.2538Z" fill="#EEEEEE"/>
<path d="M26.293 15.2539H28.2646V11.9132C28.2646 10.3826 29.1916 9.35244 30.6776 9.35244C30.8543 9.35244 31.0014 9.36718 31.1778 9.39661V7.51285C31.0014 7.46869 30.8395 7.45398 30.6628 7.45398C29.2799 7.45398 28.5294 8.41057 28.2646 9.58793V7.60114H26.293V15.2539Z" fill="#EEEEEE"/>
<path d="M34.9524 15.4011C36.3207 15.4011 37.2036 14.6505 37.3949 14.2238H37.439V15.2539H39.4108V7.60114H37.439V8.63131H37.3949C37.2036 8.20453 36.3207 7.45398 34.9524 7.45398C33.1721 7.45398 31.2739 8.7785 31.2739 11.4276C31.2739 14.0766 33.1721 15.4011 34.9524 15.4011ZM33.2162 11.4276C33.2162 10 34.2462 9.21999 35.3496 9.21999C36.4533 9.21999 37.4831 9.98529 37.4831 11.4276C37.4831 12.8698 36.4533 13.6351 35.3496 13.6351C34.2462 13.6351 33.2162 12.8551 33.2162 11.4276Z" fill="#EEEEEE"/>
<path d="M40.4688 15.2539H42.4403V11.0743C42.4403 9.95584 43.0583 9.21999 44.0735 9.21999C45.1035 9.21999 45.7068 9.95584 45.7068 11.0743V15.2539H47.6786V10.7506C47.6786 8.42528 46.3544 7.45398 44.7797 7.45398C43.6322 7.45398 42.8671 7.96905 42.4403 8.64605V7.60114H40.4688V15.2539Z" fill="#EEEEEE"/>
<path d="M52.3983 15.4011C53.7518 15.4011 54.9585 14.7536 55.6941 13.5173L54.252 12.5902C53.8548 13.1936 53.2075 13.6204 52.4131 13.6204C51.3094 13.6204 50.3089 12.7962 50.3089 11.4276C50.3089 10.0589 51.3094 9.23473 52.4131 9.23473C53.2075 9.23473 53.8548 9.66151 54.252 10.2649L55.6941 9.33773C54.9585 8.08679 53.7518 7.45398 52.3983 7.45398C50.3823 7.45398 48.3667 8.83737 48.3667 11.4276C48.3667 14.0177 50.3823 15.4011 52.3983 15.4011Z" fill="#EEEEEE"/>
<path d="M56.3833 15.2538H58.3548V7.60097H56.3833V15.2538ZM56.3833 6.54135H58.3548V4.80475H56.3833V6.54135Z" fill="#EEEEEE"/>
<path d="M61.8468 15.4011C63.4507 15.4011 64.7602 14.577 64.7602 13.0464C64.7602 11.6925 63.7301 11.1332 62.7886 10.7947L61.935 10.4709C61.3318 10.2649 61.1406 9.98529 61.1406 9.66151C61.1406 9.29357 61.4496 8.99925 61.9646 8.99925C62.3766 8.99925 62.7738 9.19057 62.9798 9.80867L64.5249 9.41132C64.2747 8.23395 63.2592 7.45398 61.8764 7.45398C60.4344 7.45398 59.2279 8.27811 59.2279 9.6468C59.2279 10.574 59.7575 11.3834 61.0228 11.8396L61.9646 12.1928C62.5678 12.4136 62.8031 12.6785 62.8031 13.0464C62.8031 13.5909 62.3177 13.8411 61.8175 13.8411C61.0669 13.8411 60.6993 13.326 60.5522 12.8257L58.9775 13.2524C59.2131 14.6653 60.3314 15.4011 61.8468 15.4011Z" fill="#EEEEEE"/>
</g>
</g>
<rect x="79.7612" width="1" height="20" rx="0.5" fill="#2A2A2A"/>
<path d="M100.176 15H96.8798V4.81818H100.28C101.278 4.81818 102.135 5.02202 102.851 5.42969C103.567 5.83404 104.115 6.41572 104.496 7.17472C104.881 7.9304 105.073 8.83688 105.073 9.89418C105.073 10.9548 104.879 11.8662 104.491 12.6286C104.107 13.3909 103.55 13.9775 102.821 14.3885C102.092 14.7962 101.21 15 100.176 15ZM98.4161 13.6577H100.091C100.867 13.6577 101.512 13.5118 102.025 13.2202C102.539 12.9252 102.924 12.4993 103.179 11.9425C103.434 11.3823 103.562 10.6996 103.562 9.89418C103.562 9.09541 103.434 8.41761 103.179 7.8608C102.927 7.30398 102.551 6.88139 102.05 6.59304C101.55 6.30469 100.928 6.16051 100.186 6.16051H98.4161V13.6577ZM110.081 15.1541C109.365 15.1541 108.74 14.9901 108.206 14.6619C107.673 14.3338 107.258 13.8748 106.963 13.2848C106.668 12.6948 106.521 12.0054 106.521 11.2166C106.521 10.4245 106.668 9.73177 106.963 9.13849C107.258 8.54522 107.673 8.08452 108.206 7.75639C108.74 7.42827 109.365 7.2642 110.081 7.2642C110.797 7.2642 111.421 7.42827 111.955 7.75639C112.489 8.08452 112.903 8.54522 113.198 9.13849C113.493 9.73177 113.64 10.4245 113.64 11.2166C113.64 12.0054 113.493 12.6948 113.198 13.2848C112.903 13.8748 112.489 14.3338 111.955 14.6619C111.421 14.9901 110.797 15.1541 110.081 15.1541ZM110.086 13.9062C110.55 13.9062 110.934 13.7836 111.239 13.5384C111.544 13.2931 111.769 12.9666 111.915 12.5589C112.064 12.1513 112.139 11.7022 112.139 11.2116C112.139 10.7244 112.064 10.277 111.915 9.86932C111.769 9.45833 111.544 9.12855 111.239 8.87997C110.934 8.63139 110.55 8.5071 110.086 8.5071C109.618 8.5071 109.231 8.63139 108.922 8.87997C108.617 9.12855 108.39 9.45833 108.241 9.86932C108.095 10.277 108.022 10.7244 108.022 11.2116C108.022 11.7022 108.095 12.1513 108.241 12.5589C108.39 12.9666 108.617 13.2931 108.922 13.5384C109.231 13.7836 109.618 13.9062 110.086 13.9062ZM118.516 15.1541C117.777 15.1541 117.141 14.9867 116.607 14.652C116.077 14.3139 115.669 13.8482 115.384 13.255C115.099 12.6617 114.957 11.9822 114.957 11.2166C114.957 10.4411 115.102 9.75663 115.394 9.16335C115.686 8.56676 116.097 8.10109 116.627 7.76633C117.157 7.43158 117.782 7.2642 118.501 7.2642C119.081 7.2642 119.598 7.37192 120.052 7.58736C120.506 7.79948 120.873 8.09777 121.151 8.48224C121.433 8.86671 121.6 9.31581 121.653 9.82955H120.207C120.127 9.47159 119.945 9.16335 119.66 8.90483C119.378 8.64631 119 8.51705 118.526 8.51705C118.112 8.51705 117.749 8.62642 117.437 8.84517C117.129 9.06061 116.889 9.36884 116.716 9.76989C116.544 10.1676 116.458 10.6383 116.458 11.1818C116.458 11.7386 116.542 12.2192 116.712 12.6236C116.881 13.0279 117.119 13.3411 117.427 13.5632C117.739 13.7853 118.105 13.8963 118.526 13.8963C118.808 13.8963 119.063 13.8449 119.292 13.7422C119.524 13.6361 119.718 13.4853 119.873 13.2898C120.033 13.0942 120.144 12.8589 120.207 12.5838H121.653C121.6 13.0777 121.439 13.5185 121.171 13.9062C120.903 14.294 120.543 14.599 120.092 14.821C119.645 15.0431 119.119 15.1541 118.516 15.1541ZM128.965 9.22798L127.618 9.46662C127.562 9.29427 127.472 9.13021 127.349 8.97443C127.23 8.81865 127.068 8.69105 126.862 8.59162C126.657 8.49219 126.4 8.44247 126.092 8.44247C125.671 8.44247 125.319 8.53693 125.038 8.72585C124.756 8.91146 124.615 9.15175 124.615 9.44673C124.615 9.70194 124.71 9.90743 124.898 10.0632C125.087 10.219 125.392 10.3466 125.813 10.446L127.026 10.7244C127.729 10.8868 128.253 11.1371 128.597 11.4751C128.942 11.8132 129.114 12.2524 129.114 12.7926C129.114 13.25 128.982 13.6577 128.717 14.0156C128.455 14.3703 128.089 14.6487 127.618 14.8509C127.151 15.053 126.609 15.1541 125.992 15.1541C125.137 15.1541 124.439 14.9718 123.899 14.6072C123.359 14.2393 123.028 13.7173 122.905 13.0412L124.342 12.8224C124.431 13.197 124.615 13.4804 124.894 13.6726C125.172 13.8615 125.535 13.956 125.982 13.956C126.47 13.956 126.859 13.8549 127.151 13.6527C127.442 13.4472 127.588 13.197 127.588 12.902C127.588 12.6634 127.499 12.4628 127.32 12.3004C127.144 12.138 126.874 12.0154 126.509 11.9325L125.217 11.6491C124.504 11.4867 123.977 11.2282 123.636 10.8736C123.298 10.5189 123.129 10.0698 123.129 9.52628C123.129 9.07552 123.255 8.68111 123.506 8.34304C123.758 8.00497 124.106 7.74148 124.55 7.55256C124.995 7.36032 125.503 7.2642 126.077 7.2642C126.902 7.2642 127.552 7.44318 128.026 7.80114C128.5 8.15578 128.813 8.63139 128.965 9.22798Z" fill="#B4B4B4"/>
<defs>
<clipPath id="clip0_4474_19503">
<rect width="64.7611" height="14" fill="white" transform="translate(0 3)"/>
</clipPath>
</defs>
</svg>
