<svg width="630" height="174" viewBox="0 0 630 174" fill="none" xmlns="http://www.w3.org/2000/svg">
<path fill-rule="evenodd" clip-rule="evenodd" d="M121.452 78.129H95.3279L90.7211 110.064H52.2965L47.6897 142H0L6.65424 95.871H6.65568L15.8629 32H128.085L121.452 78.129ZM80.6709 78.129H23.867L21.3127 95.8708H78.1166L80.6709 78.129ZM108.848 63.9354L25.9204 63.9354L28.4747 46.1935H111.395L108.848 63.9354ZM35.0779 127.806H16.7045L19.237 110.065H37.6395L35.0779 127.806Z" fill="#202020"/>
<rect x="208.084" y="25" width="8" height="124" rx="4" fill="#E8E8E8"/>
<path d="M341.084 139H308.766V34.2727H342.516C352.675 34.2727 361.369 36.3693 368.596 40.5625C375.823 44.7216 381.363 50.7045 385.215 58.5114C389.067 66.2841 390.994 75.5909 390.994 86.4318C390.994 97.3409 389.05 106.733 385.164 114.608C381.278 122.449 375.619 128.483 368.187 132.71C360.755 136.903 351.721 139 341.084 139ZM321.448 127.75H340.266C348.925 127.75 356.102 126.08 361.795 122.739C367.488 119.398 371.732 114.642 374.528 108.472C377.323 102.301 378.721 94.9545 378.721 86.4318C378.721 77.9773 377.34 70.6989 374.579 64.5966C371.817 58.4602 367.692 53.7557 362.204 50.4829C356.715 47.1761 349.88 45.5227 341.698 45.5227H321.448V127.75ZM438.219 140.636C431.128 140.636 424.907 138.949 419.554 135.574C414.236 132.199 410.077 127.477 407.077 121.409C404.111 115.341 402.628 108.25 402.628 100.136C402.628 91.9545 404.111 84.8125 407.077 78.7102C410.077 72.608 414.236 67.8693 419.554 64.4943C424.907 61.1193 431.128 59.4318 438.219 59.4318C445.31 59.4318 451.514 61.1193 456.833 64.4943C462.185 67.8693 466.344 72.608 469.31 78.7102C472.31 84.8125 473.81 91.9545 473.81 100.136C473.81 108.25 472.31 115.341 469.31 121.409C466.344 127.477 462.185 132.199 456.833 135.574C451.514 138.949 445.31 140.636 438.219 140.636ZM438.219 129.795C443.605 129.795 448.037 128.415 451.514 125.653C454.992 122.892 457.566 119.261 459.236 114.761C460.907 110.261 461.742 105.386 461.742 100.136C461.742 94.8864 460.907 89.9943 459.236 85.4602C457.566 80.9261 454.992 77.2614 451.514 74.4659C448.037 71.6705 443.605 70.2727 438.219 70.2727C432.833 70.2727 428.401 71.6705 424.924 74.4659C421.446 77.2614 418.872 80.9261 417.202 85.4602C415.532 89.9943 414.696 94.8864 414.696 100.136C414.696 105.386 415.532 110.261 417.202 114.761C418.872 119.261 421.446 122.892 424.924 125.653C428.401 128.415 432.833 129.795 438.219 129.795ZM519.821 140.636C512.457 140.636 506.116 138.898 500.798 135.42C495.48 131.943 491.389 127.153 488.525 121.051C485.662 114.949 484.23 107.977 484.23 100.136C484.23 92.1591 485.696 85.1193 488.628 79.017C491.594 72.8807 495.719 68.0909 501.003 64.6477C506.321 61.1705 512.525 59.4318 519.616 59.4318C525.139 59.4318 530.116 60.4545 534.548 62.5C538.98 64.5455 542.611 67.4091 545.44 71.0909C548.27 74.7727 550.025 79.0682 550.707 83.9773H538.639C537.719 80.3977 535.673 77.2273 532.503 74.4659C529.366 71.6705 525.139 70.2727 519.821 70.2727C515.116 70.2727 510.991 71.5 507.446 73.9545C503.935 76.375 501.19 79.8011 499.213 84.233C497.27 88.6307 496.298 93.7955 496.298 99.7273C496.298 105.795 497.253 111.08 499.162 115.58C501.105 120.08 503.832 123.574 507.344 126.062C510.889 128.551 515.048 129.795 519.821 129.795C522.957 129.795 525.804 129.25 528.361 128.159C530.917 127.068 533.082 125.5 534.855 123.455C536.628 121.409 537.889 118.955 538.639 116.091H550.707C550.025 120.727 548.338 124.903 545.645 128.619C542.986 132.301 539.457 135.233 535.06 137.415C530.696 139.562 525.616 140.636 519.821 140.636ZM619.666 78.0455L608.825 81.1136C608.143 79.3068 607.137 77.5511 605.808 75.8466C604.512 74.108 602.74 72.6761 600.49 71.5511C598.24 70.4261 595.359 69.8636 591.847 69.8636C587.041 69.8636 583.035 70.9716 579.83 73.1875C576.66 75.3693 575.075 78.1477 575.075 81.5227C575.075 84.5227 576.166 86.892 578.347 88.6307C580.529 90.3693 583.938 91.8182 588.575 92.9773L600.234 95.8409C607.257 97.5455 612.49 100.153 615.933 103.665C619.376 107.142 621.097 111.625 621.097 117.114C621.097 121.614 619.802 125.636 617.211 129.182C614.654 132.727 611.075 135.523 606.472 137.568C601.87 139.614 596.518 140.636 590.416 140.636C582.404 140.636 575.774 138.898 570.524 135.42C565.274 131.943 561.95 126.864 560.552 120.182L572.007 117.318C573.097 121.545 575.16 124.716 578.194 126.83C581.262 128.943 585.268 130 590.211 130C595.836 130 600.302 128.807 603.609 126.42C606.95 124 608.62 121.102 608.62 117.727C608.62 115 607.666 112.716 605.757 110.875C603.847 109 600.916 107.602 596.961 106.682L583.87 103.614C576.677 101.909 571.393 99.267 568.018 95.6875C564.677 92.0739 563.007 87.5568 563.007 82.1364C563.007 77.7045 564.251 73.7841 566.74 70.375C569.262 66.9659 572.688 64.2898 577.018 62.3466C581.382 60.4034 586.325 59.4318 591.847 59.4318C599.62 59.4318 605.722 61.1364 610.154 64.5454C614.62 67.9545 617.791 72.4545 619.666 78.0455Z" fill="#202020"/>
</svg>
