<svg width="352" height="116" viewBox="0 0 352 116" fill="none" xmlns="http://www.w3.org/2000/svg">
<g clip-path="url(#clip0_4570_3183)">
<mask id="mask0_4570_3183" style="mask-type:luminance" maskUnits="userSpaceOnUse" x="0" y="20" width="352" height="76">
<path d="M351.56 20H0V96H351.56V20Z" fill="white"/>
</mask>
<g mask="url(#mask0_4570_3183)">
<path fill-rule="evenodd" clip-rule="evenodd" d="M83.8195 51.8331H65.7914L62.6123 73.8711H36.096L32.9168 95.9095H0.00683594L4.59884 64.0766H4.59984L10.9536 20H88.3965L83.8195 51.8331ZM55.6768 51.8331H16.4772L14.7145 64.0765H53.9141L55.6768 51.8331ZM75.1213 42.0382H17.8942L19.6569 29.7948H76.8789L75.1213 42.0382ZM24.2136 86.1149H11.5344L13.282 73.8713H25.9814L24.2136 86.1149Z" fill="#EEEEEE"/>
<path d="M106.368 86.5203H117.311V62.7126H136.8V53.3652H117.311V39.7835H138.238V29.7971H106.368V86.5203Z" fill="#EEEEEE"/>
<path d="M142.739 86.5212H153.442V68.3858C153.442 60.0771 158.474 54.4845 166.541 54.4845C167.5 54.4845 168.299 54.5646 169.257 54.7243V44.4982C168.299 44.2584 167.42 44.1786 166.461 44.1786C158.953 44.1786 154.88 49.3715 153.442 55.7629V44.9775H142.739V86.5212Z" fill="#EEEEEE"/>
<path d="M189.75 87.3202C197.178 87.3202 201.971 83.2456 203.009 80.9288H203.248V86.5212H213.952V44.9775H203.248V50.5698H203.009C201.971 48.253 197.178 44.1786 189.75 44.1786C180.085 44.1786 169.781 51.3689 169.781 65.7494C169.781 80.13 180.085 87.3202 189.75 87.3202ZM180.324 65.7494C180.324 57.9998 185.916 53.7655 191.906 53.7655C197.898 53.7655 203.487 57.92 203.487 65.7494C203.487 73.5787 197.898 77.7331 191.906 77.7331C185.916 77.7331 180.324 73.4988 180.324 65.7494Z" fill="#EEEEEE"/>
<path d="M219.693 86.5212H230.396V63.8319C230.396 57.7601 233.75 53.7655 239.262 53.7655C244.853 53.7655 248.128 57.7601 248.128 63.8319V86.5212H258.832V62.0743C258.832 49.4514 251.643 44.1786 243.095 44.1786C236.866 44.1786 232.712 46.9747 230.396 50.6498V44.9775H219.693V86.5212Z" fill="#EEEEEE"/>
<path d="M284.456 87.3202C291.803 87.3202 298.354 83.805 302.347 77.094L294.519 72.0608C292.362 75.3363 288.848 77.6533 284.536 77.6533C278.544 77.6533 273.113 73.1793 273.113 65.7494C273.113 58.3194 278.544 53.8455 284.536 53.8455C288.848 53.8455 292.362 56.1623 294.519 59.4379L302.347 54.4047C298.354 47.6139 291.803 44.1786 284.456 44.1786C273.512 44.1786 262.57 51.6884 262.57 65.7494C262.57 79.8104 273.512 87.3202 284.456 87.3202Z" fill="#EEEEEE"/>
<path d="M306.085 86.5203H316.788V44.9766H306.085V86.5203ZM306.085 39.2244H316.788V29.7971H306.085V39.2244Z" fill="#EEEEEE"/>
<path d="M335.745 87.3202C344.452 87.3202 351.56 82.8462 351.56 74.5375C351.56 67.1875 345.969 64.1515 340.858 62.314L336.224 60.5563C332.949 59.4379 331.911 57.92 331.911 56.1623C331.911 54.165 333.589 52.5672 336.384 52.5672C338.621 52.5672 340.777 53.6058 341.896 56.9612L350.283 54.8041C348.925 48.4127 343.412 44.1786 335.906 44.1786C328.077 44.1786 321.528 48.6525 321.528 56.0825C321.528 61.1157 324.403 65.5097 331.272 67.9864L336.384 69.9037C339.659 71.1022 340.936 72.5402 340.936 74.5375C340.936 77.4934 338.301 78.8516 335.586 78.8516C331.511 78.8516 329.515 76.0554 328.717 73.3391L320.169 75.6559C321.448 83.3257 327.518 87.3202 335.745 87.3202Z" fill="#EEEEEE"/>
</g>
</g>
<defs>
<clipPath id="clip0_4570_3183">
<rect width="351.56" height="116" fill="white"/>
</clipPath>
</defs>
</svg>
