<svg width="352" height="76" viewBox="0 0 352 76" fill="none" xmlns="http://www.w3.org/2000/svg">
<g clip-path="url(#clip0_4570_3183)">
<mask id="mask0_4570_3183" style="mask-type:luminance" maskUnits="userSpaceOnUse" x="0" y="0" width="352" height="76">
<path d="M351.56 0H0V76H351.56V0Z" fill="white"/>
</mask>
<g mask="url(#mask0_4570_3183)">
<path fill-rule="evenodd" clip-rule="evenodd" d="M83.8195 31.8331H65.7914L62.6123 53.8711H36.096L32.9168 75.9095H0.00683594L4.59884 44.0766H4.59984L10.9536 0H88.3965L83.8195 31.8331ZM55.6768 31.8331H16.4772L14.7145 44.0765H53.9141L55.6768 31.8331ZM75.1213 22.0382H17.8942L19.6569 9.79478H76.8789L75.1213 22.0382ZM24.2136 66.1149H11.5344L13.282 53.8713H25.9814L24.2136 66.1149Z" fill="#EEEEEE"/>
<path d="M106.368 66.5203H117.311V42.7126H136.8V33.3652H117.311V19.7835H138.238V9.79712H106.368V66.5203Z" fill="#EEEEEE"/>
<path d="M142.739 66.5212H153.442V48.3858C153.442 40.0771 158.474 34.4845 166.541 34.4845C167.5 34.4845 168.299 34.5646 169.257 34.7243V24.4982C168.299 24.2584 167.42 24.1786 166.461 24.1786C158.953 24.1786 154.88 29.3715 153.442 35.7629V24.9775H142.739V66.5212Z" fill="#EEEEEE"/>
<path d="M189.75 67.3202C197.178 67.3202 201.971 63.2456 203.009 60.9288H203.248V66.5212H213.952V24.9775H203.248V30.5698H203.009C201.971 28.253 197.178 24.1786 189.75 24.1786C180.085 24.1786 169.781 31.3689 169.781 45.7494C169.781 60.13 180.085 67.3202 189.75 67.3202ZM180.324 45.7494C180.324 37.9998 185.916 33.7655 191.906 33.7655C197.898 33.7655 203.487 37.92 203.487 45.7494C203.487 53.5787 197.898 57.7331 191.906 57.7331C185.916 57.7331 180.324 53.4988 180.324 45.7494Z" fill="#EEEEEE"/>
<path d="M219.693 66.5212H230.396V43.8319C230.396 37.7601 233.75 33.7655 239.262 33.7655C244.853 33.7655 248.128 37.7601 248.128 43.8319V66.5212H258.832V42.0743C258.832 29.4514 251.643 24.1786 243.095 24.1786C236.866 24.1786 232.712 26.9747 230.396 30.6498V24.9775H219.693V66.5212Z" fill="#EEEEEE"/>
<path d="M284.456 67.3202C291.803 67.3202 298.354 63.805 302.347 57.094L294.519 52.0608C292.362 55.3363 288.848 57.6533 284.536 57.6533C278.544 57.6533 273.113 53.1793 273.113 45.7494C273.113 38.3194 278.544 33.8455 284.536 33.8455C288.848 33.8455 292.362 36.1623 294.519 39.4379L302.347 34.4047C298.354 27.6139 291.803 24.1786 284.456 24.1786C273.512 24.1786 262.57 31.6884 262.57 45.7494C262.57 59.8104 273.512 67.3202 284.456 67.3202Z" fill="#EEEEEE"/>
<path d="M306.085 66.5203H316.788V24.9766H306.085V66.5203ZM306.085 19.2244H316.788V9.79712H306.085V19.2244Z" fill="#EEEEEE"/>
<path d="M335.745 67.3202C344.452 67.3202 351.56 62.8462 351.56 54.5375C351.56 47.1875 345.969 44.1515 340.858 42.314L336.224 40.5563C332.949 39.4379 331.911 37.92 331.911 36.1623C331.911 34.165 333.589 32.5672 336.384 32.5672C338.621 32.5672 340.777 33.6058 341.896 36.9612L350.283 34.8041C348.925 28.4127 343.412 24.1786 335.906 24.1786C328.077 24.1786 321.528 28.6525 321.528 36.0825C321.528 41.1157 324.403 45.5097 331.272 47.9864L336.384 49.9037C339.659 51.1022 340.936 52.5402 340.936 54.5375C340.936 57.4934 338.301 58.8516 335.586 58.8516C331.511 58.8516 329.515 56.0554 328.717 53.3391L320.169 55.6559C321.448 63.3257 327.518 67.3202 335.745 67.3202Z" fill="#EEEEEE"/>
</g>
</g>
<defs>
<clipPath id="clip0_4570_3183">
<rect width="351.56" height="76" fill="white"/>
</clipPath>
</defs>
</svg>
