<svg width="24" height="22" viewBox="0 0 24 22" fill="none" xmlns="http://www.w3.org/2000/svg">
<path d="M0.000259471 11.0003C0.000259471 12.714 0.681026 14.3575 1.8928 15.5693C3.10457 16.7811 4.74808 17.4618 6.46179 17.4618H7.38471V15.0617H6.46179C5.92569 15.066 5.39404 14.9641 4.89751 14.7619C4.40099 14.5597 3.9494 14.2612 3.56879 13.8837C3.18819 13.5061 2.8861 13.0569 2.67995 12.562C2.47379 12.0671 2.36766 11.5363 2.36766 11.0002C2.36766 10.4641 2.47379 9.93325 2.67995 9.43836C2.8861 8.94346 3.18819 8.49427 3.56879 8.1167C3.9494 7.73913 4.40099 7.44064 4.89751 7.23845C5.39404 7.03626 5.92569 6.93437 6.46179 6.93865H8.67707V19.4925C8.67728 20.129 8.93018 20.7393 9.38019 21.1894C9.8302 21.6394 10.4405 21.8924 11.0769 21.8927V4.53878H6.46179C5.61323 4.53875 4.77297 4.70586 3.98899 5.03056C3.20501 5.35527 2.49267 5.83122 1.89263 6.43123C1.29259 7.03124 0.816618 7.74357 0.491879 8.52753C0.167141 9.3115 0.000259471 10.1518 0.000259471 11.0003ZM17.5385 4.53878H16.6155V6.93891H17.5385C18.6077 6.951 19.629 7.38422 20.3808 8.14457C21.1326 8.90491 21.5542 9.93105 21.5542 11.0003C21.5542 12.0696 21.1326 13.0957 20.3808 13.8561C19.629 14.6164 18.6077 15.0496 17.5385 15.0617H15.3232V2.50835C15.3232 2.19317 15.2612 1.88107 15.1406 1.58987C15.02 1.29868 14.8432 1.03409 14.6204 0.811213C14.3975 0.588337 14.1329 0.41154 13.8418 0.290919C13.5506 0.170298 13.2385 0.108215 12.9233 0.108215V17.4621H17.5385C19.2522 17.4621 20.8957 16.7813 22.1075 15.5696C23.3192 14.3578 24 12.7143 24 11.0006C24 9.28687 23.3192 7.64335 22.1075 6.43158C20.8957 5.21981 19.2522 4.53878 17.5385 4.53878Z" fill="#202020"/>
</svg>
