<svg width="24" height="22" viewBox="0 0 24 22" fill="none" xmlns="http://www.w3.org/2000/svg">
<path d="M0.000259471 10.8921C0.000259471 12.6058 0.681026 14.2493 1.8928 15.4611C3.10457 16.6729 4.74808 17.3536 6.46179 17.3536H7.38471V14.9535H6.46179C5.92569 14.9578 5.39404 14.8559 4.89751 14.6537C4.40099 14.4515 3.9494 14.153 3.56879 13.7755C3.18819 13.3979 2.8861 12.9487 2.67995 12.4538C2.47379 11.9589 2.36766 11.4281 2.36766 10.892C2.36766 10.3559 2.47379 9.82504 2.67995 9.33014C2.8861 8.83524 3.18819 8.38606 3.56879 8.00848C3.9494 7.63091 4.40099 7.33242 4.89751 7.13023C5.39404 6.92804 5.92569 6.82615 6.46179 6.83044H8.67707V19.3843C8.67728 20.0208 8.93018 20.6311 9.38019 21.0812C9.8302 21.5312 10.4405 21.7842 11.0769 21.7845V4.43057H6.46179C5.61323 4.43054 4.77297 4.59764 3.98899 4.92235C3.20501 5.24706 2.49267 5.723 1.89263 6.32302C1.29259 6.92303 0.816618 7.63535 0.491879 8.41932C0.167141 9.20328 0.000259471 10.0435 0.000259471 10.8921ZM17.5385 4.43057H16.6155V6.8307H17.5385C18.6077 6.84279 19.629 7.27601 20.3808 8.03635C21.1326 8.7967 21.5542 9.82283 21.5542 10.8921C21.5542 11.9614 21.1326 12.9875 20.3808 13.7478C19.629 14.5082 18.6077 14.9414 17.5385 14.9535H15.3232V2.40013C15.3232 2.08495 15.2612 1.77285 15.1406 1.48166C15.02 1.19046 14.8432 0.925874 14.6204 0.702998C14.3975 0.480122 14.1329 0.303325 13.8418 0.182704C13.5506 0.0620829 13.2385 -1.84419e-09 12.9233 0V17.3539H17.5385C19.2522 17.3539 20.8957 16.6731 22.1075 15.4613C23.3192 14.2496 24 12.6061 24 10.8924C24 9.17865 23.3192 7.53514 22.1075 6.32337C20.8957 5.1116 19.2522 4.43057 17.5385 4.43057Z" fill="#EEEEEE"/>
</svg>
